<?xml version="1.0" encoding="utf-8"?>
<!-- Generator: Adobe Illustrator 27.2.0, SVG Export Plug-In . SVG Version: 6.00 Build 0)  -->
<svg version="1.1" id="Layer_1" xmlns="http://www.w3.org/2000/svg" xmlns:xlink="http://www.w3.org/1999/xlink" x="0px" y="0px"
	 viewBox="0 0 818 819" style="enable-background:new 0 0 818 819;" xml:space="preserve">
<style type="text/css">
	.st0{fill:#7782D4;}
	.st1{fill:#FA949D;}
	.st2{fill:#77D4C3;}
</style>
<g>
	<g>
		<ellipse class="st0" cx="219" cy="312.5" rx="95" ry="94.5"/>
		<path class="st1" d="M3-1c0,19.1,3.8,38,11,55.7c7.3,17.7,18,33.7,31.4,47.2c13.5,13.5,29.4,24.2,47,31.5
			c17.6,7.3,36.4,11.1,55.5,11.1s37.9-3.8,55.5-11.1c17.6-7.3,33.6-18,47-31.5C264,88.4,274.7,72.3,282,54.7
			C289.2,37,293,18.1,293-1H148H3z"/>
		<path class="st2" d="M125.6,501.3c0,56.1,16.6,111,47.8,157.6s75.5,83,127.3,104.5c51.8,21.5,108.9,27.1,163.9,16.1
			c55-10.9,105.6-38,145.3-77.7c39.7-39.7,66.7-90.2,77.7-145.3c10.9-55,5.3-112.1-16.1-163.9C650,340.9,613.7,296.5,567,265.4
			c-46.7-31.2-101.5-47.8-157.6-47.8v159.9c24.5,0,48.5,7.3,68.8,20.9c20.4,13.6,36.2,33,45.6,55.6c9.4,22.6,11.8,47.5,7,71.6
			c-4.8,24-16.6,46.1-33.9,63.4c-17.3,17.3-39.4,29.1-63.4,33.9c-24,4.8-48.9,2.3-71.6-7c-22.6-9.4-42-25.3-55.6-45.6
			c-13.6-20.4-20.9-44.3-20.9-68.8H125.6z"/>
	</g>
</g>
</svg>
