<svg width="818" height="756" viewBox="0 0 818 756" fill="none" xmlns="http://www.w3.org/2000/svg">
<g clip-path="url(#clip0_205_140)">
<ellipse cx="219" cy="94.5001" rx="95" ry="94.5" fill="#7782D4"/>
<path d="M290 756.5C290 737.393 286.249 718.472 278.963 700.82C271.676 683.167 260.995 667.127 247.53 653.616C234.066 640.105 218.081 629.388 200.489 622.076C182.897 614.763 164.042 611 145 611C125.958 611 107.103 614.763 89.5109 622.076C71.9187 629.388 55.934 640.105 42.4695 653.616C29.005 667.127 18.3244 683.167 11.0375 700.82C3.75053 718.472 -1.66468e-06 737.393 0 756.5L145 756.5H290Z" fill="#FA949D"/>
<path d="M125.592 283.29C125.592 339.411 142.234 394.272 173.413 440.935C204.592 487.598 248.909 523.968 300.758 545.444C352.607 566.921 409.661 572.54 464.704 561.592C519.747 550.643 570.307 523.618 609.991 483.934C649.675 444.25 676.7 393.69 687.648 338.647C698.597 283.604 692.978 226.551 671.501 174.701C650.024 122.852 613.655 78.5357 566.992 47.3564C520.329 16.177 465.468 -0.464864 409.346 -0.464869L409.346 159.414C433.847 159.414 457.797 166.679 478.168 180.29C498.539 193.902 514.417 213.249 523.793 235.884C533.169 258.52 535.622 283.427 530.842 307.457C526.062 331.486 514.264 353.559 496.94 370.883C479.615 388.207 457.543 400.005 433.513 404.785C409.484 409.565 384.576 407.112 361.941 397.736C339.306 388.36 319.959 372.483 306.347 352.111C292.735 331.74 285.47 307.79 285.47 283.29L125.592 283.29Z" fill="#77D4C3"/>
</g>
<defs>
<clipPath id="clip0_205_140">
<rect width="818" height="756" fill="white"/>
</clipPath>
</defs>
</svg>
